<?xml version="1.0" standalone="no"?><!DOCTYPE svg PUBLIC "-//W3C//DTD SVG 1.1//EN" "http://www.w3.org/Graphics/SVG/1.1/DTD/svg11.dtd"><svg t="1783994745172" class="icon" viewBox="0 0 1024 1024" version="1.1" xmlns="http://www.w3.org/2000/svg" p-id="1767" xmlns:xlink="http://www.w3.org/1999/xlink" width="200" height="200"><path d="M554.666667 128a42.666667 42.666667 0 1 1 0 85.333333H298.666667a128 128 0 0 0-128 128v384a128 128 0 0 0 128 128h554.666666v-362.666666a42.666667 42.666667 0 1 1 85.333334 0V853.333333a85.333333 85.333333 0 0 1-85.333334 85.333334H298.666667a213.333333 213.333333 0 0 1-213.333334-213.333334V341.333333a213.333333 213.333333 0 0 1 213.333334-213.333333h256z m-170.666667 320a42.666667 42.666667 0 0 1 42.666667 42.666667V640a42.666667 42.666667 0 1 1-85.333334 0v-149.333333a42.666667 42.666667 0 0 1 42.666667-42.666667z m256 0a42.666667 42.666667 0 0 1 42.666667 42.666667V640a42.666667 42.666667 0 1 1-85.333334 0v-149.333333a42.666667 42.666667 0 0 1 42.666667-42.666667zM808.448 85.333333a15.146667 15.146667 0 0 1 14.72 11.690667l15.573333 64.64a87.637333 87.637333 0 0 0 63.36 64.768l63.274667 16c15.36 3.84 15.36 26.24 0 30.122667l-63.274667 15.914666a87.552 87.552 0 0 0-63.36 64.725334l-15.573333 64.725333a15.104 15.104 0 0 1-29.44 0l-15.616-64.725333a87.637333 87.637333 0 0 0-63.317333-64.725334l-63.274667-15.914666c-15.36-3.925333-15.36-26.282667 0-30.122667l-0.042667-0.042667 63.317334-15.914666a87.594667 87.594667 0 0 0 63.317333-64.725334l15.616-64.725333A15.146667 15.146667 0 0 1 808.405333 85.333333z" fill="#1296db" p-id="1768"></path></svg>